<svg width="16" height="16" viewBox="0 0 16 16" fill="none" xmlns="http://www.w3.org/2000/svg">
<g id="icon-gift" clip-path="url(#clip0_117_1323)">
<path id="Shape" fill-rule="evenodd" clip-rule="evenodd" d="M2.6665 3.00008C2.6665 3.34931 2.74479 3.69046 2.89165 4.00008H1.33317C0.964981 4.00008 0.666504 4.29856 0.666504 4.66675V8.00008C0.666504 8.36827 0.964981 8.66675 1.33317 8.66675H1.99984V14.6667C1.99984 15.0349 2.29831 15.3334 2.6665 15.3334H13.3332C13.7014 15.3334 13.9998 15.0349 13.9998 14.6667V8.66675H14.6665C15.0347 8.66675 15.3332 8.36827 15.3332 8.00008V4.66675C15.3332 4.29856 15.0347 4.00008 14.6665 4.00008H13.108C13.2549 3.69046 13.3332 3.34931 13.3332 3.00008C13.3332 2.38124 13.0873 1.78775 12.6498 1.35017C12.2122 0.912581 11.6187 0.666748 10.9998 0.666748C9.46244 0.666748 8.53805 1.77452 8.04069 2.6788C8.02683 2.70401 8.01321 2.7292 7.99984 2.75436C7.98646 2.7292 7.97285 2.70401 7.95898 2.6788C7.46163 1.77452 6.53724 0.666748 4.99984 0.666748C4.381 0.666748 3.78751 0.912581 3.34992 1.35017C2.91234 1.78775 2.6665 2.38124 2.6665 3.00008ZM4.99984 2.00008C4.73462 2.00008 4.48027 2.10544 4.29273 2.29297C4.10519 2.48051 3.99984 2.73486 3.99984 3.00008C3.99984 3.2653 4.10519 3.51965 4.29273 3.70719C4.48027 3.89472 4.73462 4.00008 4.99984 4.00008H7.10252C7.02113 3.78716 6.91811 3.55303 6.79069 3.32136C6.37138 2.55898 5.79577 2.00008 4.99984 2.00008ZM8.89716 4.00008H10.9998C11.2651 4.00008 11.5194 3.89472 11.7069 3.70719C11.8945 3.51965 11.9998 3.2653 11.9998 3.00008C11.9998 2.73486 11.8945 2.48051 11.7069 2.29297C11.5194 2.10544 11.2651 2.00008 10.9998 2.00008C10.2039 2.00008 9.62829 2.55898 9.20898 3.32136C9.08156 3.55303 8.97854 3.78716 8.89716 4.00008ZM8.6665 5.33341V7.33341H13.9998V5.33341H8.6665ZM7.33317 5.33341V7.33341H1.99984V5.33341H7.33317ZM8.6665 14.0001H12.6665V8.66675H8.6665V14.0001ZM7.33317 8.66675V14.0001H3.33317V8.66675H7.33317Z" fill="#2D3648"/>
</g>
<defs>
<clipPath id="clip0_117_1323">
<rect width="16" height="16" fill="white"/>
</clipPath>
</defs>
</svg>
