<svg width="16" height="16" viewBox="0 0 16 16" fill="none" xmlns="http://www.w3.org/2000/svg">
<g id="icon-calendar">
<path id="Shape" fill-rule="evenodd" clip-rule="evenodd" d="M11.3335 1.33341C11.3335 0.965225 11.035 0.666748 10.6668 0.666748C10.2986 0.666748 10.0002 0.965225 10.0002 1.33341V2.00008H6.00016V1.33341C6.00016 0.965225 5.70169 0.666748 5.3335 0.666748C4.96531 0.666748 4.66683 0.965225 4.66683 1.33341V2.00008H3.3335C2.22893 2.00008 1.3335 2.89551 1.3335 4.00008V13.3334C1.3335 14.438 2.22893 15.3334 3.3335 15.3334H12.6668C13.7714 15.3334 14.6668 14.438 14.6668 13.3334V4.00008C14.6668 2.89551 13.7714 2.00008 12.6668 2.00008H11.3335V1.33341ZM13.3335 6.00008V4.00008C13.3335 3.63189 13.035 3.33341 12.6668 3.33341H11.3335V4.00008C11.3335 4.36827 11.035 4.66675 10.6668 4.66675C10.2986 4.66675 10.0002 4.36827 10.0002 4.00008V3.33341H6.00016V4.00008C6.00016 4.36827 5.70169 4.66675 5.3335 4.66675C4.96531 4.66675 4.66683 4.36827 4.66683 4.00008V3.33341H3.3335C2.96531 3.33341 2.66683 3.63189 2.66683 4.00008V6.00008H13.3335ZM2.66683 7.33341H13.3335V13.3334C13.3335 13.7016 13.035 14.0001 12.6668 14.0001H3.3335C2.96531 14.0001 2.66683 13.7016 2.66683 13.3334V7.33341Z" fill="#2D3648"/>
</g>
</svg>
