<svg width="17" height="17" viewBox="0 0 17 17" fill="none" xmlns="http://www.w3.org/2000/svg">
<g id="icon-mail">
<path id="Shape" fill-rule="evenodd" clip-rule="evenodd" d="M0.708348 4.23772C0.708233 4.24471 0.708221 4.25169 0.708313 4.25868V12.75C0.708313 13.9204 1.66294 14.875 2.83331 14.875H14.1666C15.337 14.875 16.2916 13.9204 16.2916 12.75V4.25876C16.2917 4.25171 16.2917 4.24466 16.2916 4.23761C16.2849 3.0729 15.3329 2.125 14.1666 2.125H2.83331C1.66704 2.125 0.715 3.07296 0.708348 4.23772ZM2.20047 3.93405C2.31762 3.7024 2.55851 3.54167 2.83331 3.54167H14.1666C14.4415 3.54167 14.6823 3.7024 14.7995 3.93405L8.49998 8.3437L2.20047 3.93405ZM14.875 5.61046V12.75C14.875 13.138 14.5546 13.4583 14.1666 13.4583H2.83331C2.44535 13.4583 2.12498 13.138 2.12498 12.75V5.61046L8.09378 9.78862C8.33767 9.95935 8.66229 9.95935 8.90618 9.78862L14.875 5.61046Z" fill="#2D3648"/>
</g>
</svg>
