<svg width="17" height="17" viewBox="0 0 17 17" fill="none" xmlns="http://www.w3.org/2000/svg">
<g id="icon-user">
<g id="Shape">
<path fill-rule="evenodd" clip-rule="evenodd" d="M8.5 1.41666C6.54399 1.41666 4.95833 3.00231 4.95833 4.95832C4.95833 6.91433 6.54399 8.49999 8.5 8.49999C10.456 8.49999 12.0417 6.91433 12.0417 4.95832C12.0417 3.00231 10.456 1.41666 8.5 1.41666ZM6.375 4.95832C6.375 3.78472 7.32639 2.83332 8.5 2.83332C9.6736 2.83332 10.625 3.78472 10.625 4.95832C10.625 6.13193 9.6736 7.08332 8.5 7.08332C7.32639 7.08332 6.375 6.13193 6.375 4.95832Z" fill="#2D3648"/>
<path d="M5.66667 9.91666C4.72736 9.91666 3.82652 10.2898 3.16233 10.954C2.49814 11.6182 2.125 12.519 2.125 13.4583V14.875C2.125 15.2662 2.44213 15.5833 2.83333 15.5833C3.22453 15.5833 3.54167 15.2662 3.54167 14.875V13.4583C3.54167 12.8947 3.76555 12.3542 4.16406 11.9557C4.56258 11.5572 5.10308 11.3333 5.66667 11.3333H11.3333C11.8969 11.3333 12.4374 11.5572 12.8359 11.9557C13.2344 12.3542 13.4583 12.8947 13.4583 13.4583V14.875C13.4583 15.2662 13.7755 15.5833 14.1667 15.5833C14.5579 15.5833 14.875 15.2662 14.875 14.875V13.4583C14.875 12.519 14.5019 11.6182 13.8377 10.954C13.1735 10.2898 12.2726 9.91666 11.3333 9.91666H5.66667Z" fill="#2D3648"/>
</g>
</g>
</svg>
