<svg width="24" height="21" viewBox="0 0 24 21" fill="none" xmlns="http://www.w3.org/2000/svg">
<g id="Shape">
<path d="M12 7.00002C12.5523 7.00002 13 7.44774 13 8.00002V12C13 12.5523 12.5523 13 12 13C11.4477 13 11 12.5523 11 12V8.00002C11 7.44774 11.4477 7.00002 12 7.00002Z" fill="#EE534F"/>
<path d="M12 15C11.4477 15 11 15.4477 11 16C11 16.5523 11.4477 17 12 17H12.01C12.5623 17 13.01 16.5523 13.01 16C13.01 15.4477 12.5623 15 12.01 15H12Z" fill="#EE534F"/>
<path fill-rule="evenodd" clip-rule="evenodd" d="M10.5282 1.28312C10.9775 1.03017 11.4844 0.897278 12 0.897278C12.5156 0.897278 13.0225 1.03017 13.4718 1.28312C13.9211 1.53607 14.2976 1.90055 14.565 2.34139L14.5679 2.34614L23.0379 16.4862L23.046 16.5C23.308 16.9536 23.4466 17.4679 23.448 17.9917C23.4495 18.5156 23.3138 19.0307 23.0544 19.4858C22.795 19.9408 22.4209 20.3201 21.9694 20.5857C21.518 20.8514 21.0048 20.9942 20.481 21L20.47 21.0001L3.51903 21C2.99522 20.9943 2.48206 20.8514 2.03059 20.5857C1.57912 20.3201 1.20507 19.9408 0.94567 19.4858C0.686267 19.0307 0.550547 18.5156 0.552014 17.9917C0.55348 17.4679 0.692083 16.9536 0.95403 16.5L0.962153 16.4862L9.43215 2.34615L10.29 2.86001L9.43502 2.34139C9.70243 1.90055 10.0789 1.53607 10.5282 1.28312ZM11.1462 3.37666L2.68271 17.5058C2.59753 17.6556 2.55249 17.8249 2.55201 17.9973C2.55152 18.172 2.59676 18.3436 2.68322 18.4953C2.76969 18.647 2.89437 18.7735 3.04487 18.862C3.19404 18.9498 3.36342 18.9973 3.53642 19H20.4636C20.6366 18.9973 20.806 18.9498 20.9552 18.862C21.1057 18.7735 21.2303 18.647 21.3168 18.4953C21.4033 18.3436 21.4485 18.172 21.448 17.9973C21.4476 17.825 21.4025 17.6557 21.3174 17.5059L12.855 3.37865L12.8538 3.37666C12.7648 3.23061 12.6397 3.10983 12.4906 3.02589C12.3409 2.94157 12.1719 2.89728 12 2.89728C11.8282 2.89728 11.6592 2.94157 11.5094 3.02589C11.3603 3.10983 11.2353 3.23061 11.1462 3.37666Z" fill="#EE534F"/>
</g>
</svg>
