<svg width="16" height="16" viewBox="0 0 16 16" fill="none" xmlns="http://www.w3.org/2000/svg">
<g id="icon-archive">
<g id="Shape">
<path d="M6.66667 7.33325C6.29848 7.33325 6 7.63173 6 7.99992C6 8.36811 6.29848 8.66659 6.66667 8.66659H9.33333C9.70152 8.66659 10 8.36811 10 7.99992C10 7.63173 9.70152 7.33325 9.33333 7.33325H6.66667Z" fill="#2D3648"/>
<path fill-rule="evenodd" clip-rule="evenodd" d="M0 1.99992C0 1.63173 0.298477 1.33325 0.666667 1.33325H15.3333C15.7015 1.33325 16 1.63173 16 1.99992V5.33325C16 5.70144 15.7015 5.99992 15.3333 5.99992H14.6667V13.9999C14.6667 14.3681 14.3682 14.6666 14 14.6666H2C1.63181 14.6666 1.33333 14.3681 1.33333 13.9999V5.99992H0.666667C0.298477 5.99992 0 5.70144 0 5.33325V1.99992ZM13.3333 13.3333V5.99992H2.66667V13.3333H13.3333ZM14.6667 4.66659H1.33333V2.66659H14.6667V4.66659Z" fill="#2D3648"/>
</g>
</g>
</svg>
