<svg width="16" height="16" viewBox="0 0 16 16" fill="none" xmlns="http://www.w3.org/2000/svg">
<g id="icon-calendar-target">
<g id="Shape">
<path fill-rule="evenodd" clip-rule="evenodd" d="M11.3333 1.33341C11.3333 0.965225 11.0349 0.666748 10.6667 0.666748C10.2985 0.666748 10 0.965225 10 1.33341V2.00008H6V1.33341C6 0.965225 5.70152 0.666748 5.33333 0.666748C4.96514 0.666748 4.66667 0.965225 4.66667 1.33341V2.00008H3.33333C2.22876 2.00008 1.33333 2.89551 1.33333 4.00008V8.66675H2.66667V7.33341H13.3333V13.3334C13.3333 13.7016 13.0349 14.0001 12.6667 14.0001H8V15.3334H12.6667C13.7712 15.3334 14.6667 14.438 14.6667 13.3334V4.00008C14.6667 2.89551 13.7712 2.00008 12.6667 2.00008H11.3333V1.33341ZM13.3333 6.00008V4.00008C13.3333 3.63189 13.0349 3.33341 12.6667 3.33341H11.3333V4.00008C11.3333 4.36827 11.0349 4.66675 10.6667 4.66675C10.2985 4.66675 10 4.36827 10 4.00008V3.33341H6V4.00008C6 4.36827 5.70152 4.66675 5.33333 4.66675C4.96514 4.66675 4.66667 4.36827 4.66667 4.00008V3.33341H3.33333C2.96514 3.33341 2.66667 3.63189 2.66667 4.00008V6.00008H13.3333Z" fill="#2D3648"/>
<path d="M4 8.52895C4.26255 8.26824 4.68822 8.26824 4.95077 8.52895L7.80309 11.3613C8.06564 11.6221 8.06564 12.0448 7.80309 12.3055L4.95077 15.1379C4.68822 15.3986 4.26255 15.3986 4 15.1379C3.73745 14.8772 3.73745 14.4545 4 14.1937L5.70463 12.501L0.672297 12.501C0.300998 12.501 0 12.2021 0 11.8334C0 11.4647 0.300998 11.1658 0.672298 11.1658L5.70463 11.1658L4 9.47308C3.73745 9.21237 3.73745 8.78967 4 8.52895Z" fill="#2D3648"/>
</g>
</g>
</svg>
