<svg width="16" height="16" viewBox="0 0 16 16" fill="none" xmlns="http://www.w3.org/2000/svg">
<g id="icon-home">
<path id="Shape" fill-rule="evenodd" clip-rule="evenodd" d="M8.40946 0.80718C8.16872 0.619937 7.83161 0.619937 7.59087 0.80718L1.59087 5.47385C1.42848 5.60015 1.3335 5.79435 1.3335 6.00008V13.3334C1.3335 13.8638 1.54421 14.3726 1.91928 14.7476C2.29436 15.1227 2.80306 15.3334 3.3335 15.3334H12.6668C13.1973 15.3334 13.706 15.1227 14.081 14.7476C14.4561 14.3726 14.6668 13.8638 14.6668 13.3334V6.00008C14.6668 5.79435 14.5718 5.60015 14.4095 5.47385L8.40946 0.80718ZM10.6668 14.0001H12.6668C12.8436 14.0001 13.0132 13.9298 13.1382 13.8048C13.2633 13.6798 13.3335 13.5102 13.3335 13.3334V6.32614L8.00016 2.17799L2.66683 6.32614V13.3334C2.66683 13.5102 2.73707 13.6798 2.86209 13.8048C2.98712 13.9298 3.15669 14.0001 3.3335 14.0001H5.3335V8.00008C5.3335 7.63189 5.63197 7.33341 6.00016 7.33341H10.0002C10.3684 7.33341 10.6668 7.63189 10.6668 8.00008V14.0001ZM6.66683 14.0001V8.66675H9.3335V14.0001H6.66683Z" fill="#2D3648"/>
</g>
</svg>
