<svg width="16" height="16" viewBox="0 0 16 16" fill="none" xmlns="http://www.w3.org/2000/svg">
<g id="icon-smile" clip-path="url(#clip0_117_1307)">
<g id="Shape">
<path d="M4.93321 8.80008C5.22683 8.57986 5.643 8.63849 5.86445 8.93064L5.86754 8.93458C5.87151 8.9396 5.87905 8.94898 5.89008 8.96212C5.91218 8.98846 5.948 9.02953 5.99683 9.08048C6.09503 9.18294 6.24259 9.32196 6.43366 9.46092C6.81836 9.74071 7.35023 10.0001 7.99988 10.0001C8.64952 10.0001 9.18139 9.74071 9.56609 9.46092C9.75716 9.32196 9.90473 9.18294 10.0029 9.08048C10.0518 9.02953 10.0876 8.98846 10.1097 8.96212C10.1207 8.94898 10.1282 8.9396 10.1322 8.93458L10.1353 8.93063C10.3568 8.63849 10.7729 8.57986 11.0665 8.80008C11.3611 9.02099 11.4208 9.43886 11.1999 9.73341L10.6665 9.33341C11.1999 9.73341 11.2 9.73319 11.1999 9.73341L11.1992 9.73431L11.1984 9.73533L11.1966 9.73774L11.1918 9.74402L11.1776 9.76219C11.1661 9.77671 11.1505 9.79597 11.131 9.81929C11.0919 9.86587 11.0365 9.92896 10.9656 10.003C10.8242 10.1505 10.6176 10.3449 10.3503 10.5392C9.81836 10.9261 9.0169 11.3334 7.99988 11.3334C6.98286 11.3334 6.18139 10.9261 5.64943 10.5392C5.38216 10.3449 5.17556 10.1505 5.03418 10.003C4.96321 9.92896 4.90788 9.86587 4.86878 9.81929C4.84921 9.79597 4.83364 9.77671 4.82215 9.76219L4.80795 9.74402L4.80315 9.73774L4.80132 9.73533L4.80055 9.73431C4.80038 9.73409 4.79988 9.73341 5.33321 9.33341L4.79988 9.73341C4.57896 9.43886 4.63866 9.02099 4.93321 8.80008Z" fill="#2D3648"/>
<path d="M5.33317 6.00008C5.33317 5.63189 5.63165 5.33341 5.99984 5.33341H6.0065C6.37469 5.33341 6.67317 5.63189 6.67317 6.00008C6.67317 6.36827 6.37469 6.66675 6.0065 6.66675H5.99984C5.63165 6.66675 5.33317 6.36827 5.33317 6.00008Z" fill="#2D3648"/>
<path d="M9.99984 5.33341C9.63165 5.33341 9.33317 5.63189 9.33317 6.00008C9.33317 6.36827 9.63165 6.66675 9.99984 6.66675H10.0065C10.3747 6.66675 10.6732 6.36827 10.6732 6.00008C10.6732 5.63189 10.3747 5.33341 10.0065 5.33341H9.99984Z" fill="#2D3648"/>
<path fill-rule="evenodd" clip-rule="evenodd" d="M7.99984 0.666748C3.94975 0.666748 0.666504 3.94999 0.666504 8.00008C0.666504 12.0502 3.94975 15.3334 7.99984 15.3334C12.0499 15.3334 15.3332 12.0502 15.3332 8.00008C15.3332 3.94999 12.0499 0.666748 7.99984 0.666748ZM1.99984 8.00008C1.99984 4.68637 4.68613 2.00008 7.99984 2.00008C11.3135 2.00008 13.9998 4.68637 13.9998 8.00008C13.9998 11.3138 11.3135 14.0001 7.99984 14.0001C4.68613 14.0001 1.99984 11.3138 1.99984 8.00008Z" fill="#2D3648"/>
</g>
</g>
<defs>
<clipPath id="clip0_117_1307">
<rect width="16" height="16" fill="white"/>
</clipPath>
</defs>
</svg>
