<svg width="16" height="16" viewBox="0 0 16 16" fill="none" xmlns="http://www.w3.org/2000/svg">
<g id="icon-user">
<g id="Shape">
<path fill-rule="evenodd" clip-rule="evenodd" d="M8 1.33325C6.15905 1.33325 4.66667 2.82564 4.66667 4.66659C4.66667 6.50753 6.15905 7.99992 8 7.99992C9.84095 7.99992 11.3333 6.50753 11.3333 4.66659C11.3333 2.82564 9.84095 1.33325 8 1.33325ZM6 4.66659C6 3.56202 6.89543 2.66659 8 2.66659C9.10457 2.66659 10 3.56202 10 4.66659C10 5.77115 9.10457 6.66659 8 6.66659C6.89543 6.66659 6 5.77115 6 4.66659Z" fill="#2D3648"/>
<path d="M5.33333 9.33325C4.44928 9.33325 3.60143 9.68444 2.97631 10.3096C2.35119 10.9347 2 11.7825 2 12.6666V13.9999C2 14.3681 2.29848 14.6666 2.66667 14.6666C3.03486 14.6666 3.33333 14.3681 3.33333 13.9999V12.6666C3.33333 12.1362 3.54405 11.6274 3.91912 11.2524C4.29419 10.8773 4.8029 10.6666 5.33333 10.6666H10.6667C11.1971 10.6666 11.7058 10.8773 12.0809 11.2524C12.456 11.6274 12.6667 12.1362 12.6667 12.6666V13.9999C12.6667 14.3681 12.9651 14.6666 13.3333 14.6666C13.7015 14.6666 14 14.3681 14 13.9999V12.6666C14 11.7825 13.6488 10.9347 13.0237 10.3096C12.3986 9.68444 11.5507 9.33325 10.6667 9.33325H5.33333Z" fill="#2D3648"/>
</g>
</g>
</svg>
