<svg width="237" height="203" viewBox="0 0 237 203" fill="none" xmlns="http://www.w3.org/2000/svg">
<g id="Group 109">
<path id="Vector" d="M180.624 1V9.6613" stroke="#BABABA" stroke-linecap="round" stroke-linejoin="round"/>
<path id="Vector_2" d="M176.303 5.32031H184.944" stroke="#BABABA" stroke-linecap="round" stroke-linejoin="round"/>
<path id="Vector_3" d="M51.8499 3.77295V12.4142" stroke="#BABABA" stroke-linecap="round" stroke-linejoin="round"/>
<path id="Vector_4" d="M47.5293 8.09375H56.1906" stroke="#BABABA" stroke-linecap="round" stroke-linejoin="round"/>
<path id="Vector_5" d="M124.938 166.127V174.768" stroke="#BABABA" stroke-linecap="round" stroke-linejoin="round"/>
<path id="Vector_6" d="M120.618 170.448H129.259" stroke="#BABABA" stroke-linecap="round" stroke-linejoin="round"/>
<path id="Vector_7" d="M117.181 12.0931C118.269 12.0931 119.151 11.2114 119.151 10.1237C119.151 9.03602 118.269 8.1543 117.181 8.1543C116.094 8.1543 115.212 9.03602 115.212 10.1237C115.212 11.2114 116.094 12.0931 117.181 12.0931Z" fill="#CFCFCF"/>
<path id="Vector_8" d="M198.228 36.2481C199.316 36.2481 200.197 35.3664 200.197 34.2787C200.197 33.1911 199.316 32.3093 198.228 32.3093C197.14 32.3093 196.259 33.1911 196.259 34.2787C196.259 35.3664 197.14 36.2481 198.228 36.2481Z" fill="#CFCFCF"/>
<path id="Vector_9" d="M49.7194 160.962C50.8071 160.962 51.6888 160.081 51.6888 158.993C51.6888 157.905 50.8071 157.024 49.7194 157.024C48.6317 157.024 47.75 157.905 47.75 158.993C47.75 160.081 48.6317 160.962 49.7194 160.962Z" fill="#CFCFCF"/>
<path id="Vector_10" d="M159.664 65.0855C142.844 65.0855 125.722 64.4023 109.706 59.941C93.9906 55.5802 79.5618 47.1199 66.7005 37.3332C58.2803 30.9628 50.6238 25.8987 39.6917 26.6623C28.9877 27.2483 18.7566 31.2646 10.5125 38.1169C-3.39377 50.1744 -1.3038 72.742 4.26274 88.5976C12.6226 112.471 38.0639 129.01 59.687 139.822C84.6661 152.301 112.117 159.536 139.628 163.716C163.743 167.373 194.731 170.046 215.631 154.291C234.822 139.822 240.087 106.784 235.385 84.478C234.245 77.8823 230.736 71.9297 225.518 67.7382C212.033 57.8912 191.918 64.4625 176.765 64.8042C171.138 64.9248 165.411 65.0654 159.664 65.0855Z" fill="#F2F2F2"/>
<path id="Vector_11" d="M118.508 202.802C159.251 202.802 192.279 200.741 192.279 198.2C192.279 195.658 159.251 193.598 118.508 193.598C77.7646 193.598 44.7358 195.658 44.7358 198.2C44.7358 200.741 77.7646 202.802 118.508 202.802Z" fill="#F2F2F2"/>
<path id="Vector_12" d="M52.5935 52.3648C50.4432 50.5562 41.2394 42.4375 37.7427 39.825C51.0662 32.2087 63.2644 32.691 68.63 35.8059C72.2271 37.8155 73.6338 37.8155 77.2511 36.1475C106.49 22.7637 136.031 20.6536 165.09 36.1475C194.148 51.6414 202.548 83.3325 185.326 111.788C184.181 113.863 183.824 116.283 184.322 118.601C186.793 127.885 189.627 137.089 192.581 146.232C194.008 150.694 192.581 153.105 188.16 153.949C187.804 153.98 187.453 154.054 187.115 154.17C174.193 159.616 163.462 157.084 155.163 145.509C153.525 143.049 152.074 140.469 150.822 137.792C140.151 146.755 113.223 148.905 113.223 148.905C113.141 151.109 112.906 153.305 112.519 155.476C109.927 168.941 100.964 174.005 88.1229 175.11C80.7075 175.753 79.9238 175.894 78.8788 168.278C78.075 162.47 77.5927 156.582 76.5276 150.814C76.3142 149.889 75.9088 149.019 75.3375 148.261C74.7663 147.503 74.0421 146.873 73.2118 146.413C63.6438 142.465 54.8837 136.791 47.3686 129.673C45.158 127.664 40.9781 127.242 37.602 126.78C24.379 124.971 26.6699 126.78 23.9168 114.3C22.49 107.869 20.8622 101.439 20.0383 94.9278C19.7569 92.9182 21.1636 89.2808 22.7914 88.5373C27.4642 86.4416 31.6262 83.3561 34.9896 79.4942C36.6333 77.5493 38.0743 75.4417 39.2901 73.2042C40.9678 69.521 42.8324 65.9259 44.8767 62.4328C47.2681 58.9362 50.1418 55.8213 52.5935 52.3648Z" fill="white" stroke="#BABABA" stroke-linecap="round" stroke-linejoin="round"/>
<path id="Vector_13" d="M191.797 64.5631C191.797 64.5631 204.96 67.0349 209.541 60.8253C214.565 53.9927 209.099 48.7678 206.306 48.2051C200.8 47.3008 197.263 52.5659 199.936 56.4846" stroke="#BABABA" stroke-linecap="round" stroke-linejoin="round"/>
<g id="Vector_14">
<path d="M91.2175 39.4631C92.3228 39.6038 127.048 31.9473 127.048 31.9473Z" fill="white"/>
<path d="M91.2175 39.4631C92.3228 39.6038 127.048 31.9473 127.048 31.9473" stroke="#BABABA" stroke-linecap="round" stroke-linejoin="round"/>
</g>
<g id="Vector_15">
<path d="M48.6345 80.9009L40.9177 82.5085L48.2125 87.2914" fill="white"/>
<path d="M48.6345 80.9009L40.9177 82.5085L48.2125 87.2914" stroke="#BABABA" stroke-linecap="round" stroke-linejoin="round"/>
</g>
<path id="Vector_16" d="M23.2937 112.109C23.2937 112.109 36.6775 108.834 43.0278 114.119" stroke="#BABABA" stroke-linecap="round" stroke-linejoin="round"/>
<path id="Vector_17" d="M51.0261 50.998L60.8731 59.3378" stroke="#BABABA" stroke-linecap="round" stroke-linejoin="round"/>
<g id="Vector_18">
<path d="M64.9321 34.2788C65.9771 34.6405 74.8394 35.6051 77.1303 46.9995Z" fill="white"/>
<path d="M64.9321 34.2788C65.9771 34.6405 74.8394 35.6051 77.1303 46.9995" stroke="#BABABA" stroke-linecap="round" stroke-linejoin="round"/>
</g>
</g>
</svg>
