<svg width="199" height="50" viewBox="0 0 199 50" fill="none" xmlns="http://www.w3.org/2000/svg">
<g clip-path="url(#clip0_260_370)">
<rect width="199" height="50" fill="white"/>
<path d="M2.52 38V12.8H14.436C17.22 12.8 19.668 13.316 21.78 14.348C23.892 15.38 25.536 16.832 26.712 18.704C27.912 20.576 28.512 22.808 28.512 25.4C28.512 27.968 27.912 30.2 26.712 32.096C25.536 33.968 23.892 35.42 21.78 36.452C19.668 37.484 17.22 38 14.436 38H2.52ZM9.648 32.312H14.148C15.588 32.312 16.836 32.048 17.892 31.52C18.972 30.968 19.812 30.176 20.412 29.144C21.012 28.088 21.312 26.84 21.312 25.4C21.312 23.936 21.012 22.688 20.412 21.656C19.812 20.624 18.972 19.844 17.892 19.316C16.836 18.764 15.588 18.488 14.148 18.488H9.648V32.312ZM43.8902 38.504C41.8742 38.504 40.0142 38.18 38.3102 37.532C36.6062 36.884 35.1182 35.972 33.8462 34.796C32.5982 33.596 31.6262 32.204 30.9302 30.62C30.2342 29.036 29.8862 27.296 29.8862 25.4C29.8862 23.504 30.2342 21.764 30.9302 20.18C31.6262 18.596 32.5982 17.216 33.8462 16.04C35.1182 14.84 36.6062 13.916 38.3102 13.268C40.0142 12.62 41.8742 12.296 43.8902 12.296C45.9302 12.296 47.7902 12.62 49.4702 13.268C51.1742 13.916 52.6502 14.84 53.8982 16.04C55.1462 17.216 56.1182 18.596 56.8142 20.18C57.5342 21.764 57.8942 23.504 57.8942 25.4C57.8942 27.296 57.5342 29.048 56.8142 30.656C56.1182 32.24 55.1462 33.62 53.8982 34.796C52.6502 35.972 51.1742 36.884 49.4702 37.532C47.7902 38.18 45.9302 38.504 43.8902 38.504ZM43.8902 32.6C44.8502 32.6 45.7382 32.432 46.5542 32.096C47.3942 31.76 48.1142 31.28 48.7142 30.656C49.3382 30.008 49.8182 29.24 50.1542 28.352C50.5142 27.464 50.6942 26.48 50.6942 25.4C50.6942 24.296 50.5142 23.312 50.1542 22.448C49.8182 21.56 49.3382 20.804 48.7142 20.18C48.1142 19.532 47.3942 19.04 46.5542 18.704C45.7382 18.368 44.8502 18.2 43.8902 18.2C42.9302 18.2 42.0302 18.368 41.1902 18.704C40.3742 19.04 39.6542 19.532 39.0302 20.18C38.4302 20.804 37.9502 21.56 37.5902 22.448C37.2542 23.312 37.0862 24.296 37.0862 25.4C37.0862 26.48 37.2542 27.464 37.5902 28.352C37.9502 29.24 38.4302 30.008 39.0302 30.656C39.6542 31.28 40.3742 31.76 41.1902 32.096C42.0302 32.432 42.9302 32.6 43.8902 32.6ZM60.5475 38V12.8H66.4155L80.3115 29.576H77.5395V12.8H84.5235V38H78.6555L64.7595 21.224H67.5315V38H60.5475ZM104.924 38.216C103.7 38.216 102.488 38.084 101.288 37.82C100.112 37.532 99.044 37.148 98.084 36.668C97.124 36.164 96.356 35.612 95.78 35.012L97.076 32.924C97.652 33.524 98.36 34.052 99.2 34.508C100.064 34.964 101.012 35.324 102.044 35.588C103.076 35.828 104.108 35.948 105.14 35.948C106.628 35.948 107.924 35.756 109.028 35.372C110.156 34.988 111.032 34.424 111.656 33.68C112.28 32.936 112.592 32.036 112.592 30.98C112.592 30.14 112.352 29.468 111.872 28.964C111.392 28.436 110.768 28.016 110 27.704C109.232 27.368 108.38 27.068 107.444 26.804C106.508 26.54 105.572 26.252 104.636 25.94C103.7 25.628 102.836 25.244 102.044 24.788C101.276 24.332 100.652 23.732 100.172 22.988C99.716 22.244 99.488 21.308 99.488 20.18C99.488 18.596 99.92 17.24 100.784 16.112C101.648 14.96 102.836 14.084 104.348 13.484C105.86 12.884 107.6 12.584 109.568 12.584C111.056 12.584 112.484 12.764 113.852 13.124C115.244 13.484 116.42 14.024 117.38 14.744L116.264 16.904C115.352 16.232 114.308 15.728 113.132 15.392C111.956 15.032 110.72 14.852 109.424 14.852C107.96 14.852 106.676 15.056 105.572 15.464C104.468 15.872 103.604 16.46 102.98 17.228C102.38 17.972 102.08 18.872 102.08 19.928C102.08 20.768 102.308 21.452 102.764 21.98C103.244 22.508 103.868 22.94 104.636 23.276C105.428 23.612 106.292 23.924 107.228 24.212C108.164 24.476 109.1 24.764 110.036 25.076C110.972 25.364 111.824 25.736 112.592 26.192C113.384 26.624 114.02 27.2 114.5 27.92C114.98 28.616 115.22 29.516 115.22 30.62C115.22 32.228 114.776 33.608 113.888 34.76C113 35.888 111.776 36.752 110.216 37.352C108.68 37.928 106.916 38.216 104.924 38.216ZM118.648 38L123.688 12.8H132.724C135.58 12.8 137.788 13.424 139.348 14.672C140.932 15.92 141.724 17.672 141.724 19.928C141.724 22.088 141.244 23.924 140.284 25.436C139.348 26.924 138.004 28.064 136.252 28.856C134.5 29.648 132.424 30.044 130.024 30.044H121.708L123.148 28.784L121.276 38H118.648ZM123.076 29L122.14 27.704H130.06C132.916 27.704 135.124 27.068 136.684 25.796C138.268 24.524 139.06 22.652 139.06 20.18C139.06 18.524 138.496 17.264 137.368 16.4C136.24 15.536 134.62 15.104 132.508 15.104H124.732L126.136 13.772L123.076 29ZM144.488 30.44L147.476 12.8H150.5L146.468 30.44H144.488ZM144.236 38.18C143.708 38.18 143.264 38.012 142.904 37.676C142.568 37.316 142.4 36.896 142.4 36.416C142.4 35.864 142.592 35.408 142.976 35.048C143.36 34.664 143.816 34.472 144.344 34.472C144.872 34.472 145.304 34.64 145.64 34.976C146 35.312 146.18 35.72 146.18 36.2C146.18 36.56 146.084 36.896 145.892 37.208C145.724 37.496 145.496 37.736 145.208 37.928C144.92 38.096 144.596 38.18 144.236 38.18ZM155.316 31.664L155.712 28.388L173.892 12.8H177.384L163.776 24.5L162.192 25.796L155.316 31.664ZM151.68 38L156.72 12.8H159.348L154.308 38H151.68ZM169.968 38L161.4 25.472L163.2 23.708L172.956 38H169.968ZM181.342 24.068H194.662L194.23 26.336H180.91L181.342 24.068ZM179.29 35.696H194.446L193.978 38H176.194L181.234 12.8H198.514L198.046 15.104H183.394L179.29 35.696Z" fill="url(#paint0_linear_260_370)"/>
</g>
<defs>
<linearGradient id="paint0_linear_260_370" x1="0" y1="25" x2="199" y2="25" gradientUnits="userSpaceOnUse">
<stop offset="0.19085" stop-color="#9B30FF"/>
<stop offset="0.92" stop-color="#FFB200"/>
</linearGradient>
<clipPath id="clip0_260_370">
<rect width="199" height="50" fill="white"/>
</clipPath>
</defs>
</svg>
