<svg width="140" height="36" viewBox="0 0 140 36" fill="none" xmlns="http://www.w3.org/2000/svg">
<g id="Frame" clip-path="url(#clip0_371_770)">
<g id="Clip path group">
<mask id="mask0_371_770" style="mask-type:luminance" maskUnits="userSpaceOnUse" x="0" y="0" width="140" height="36">
<g id="clip0_260_370">
<path id="Vector" d="M140 0H0V36H140V0Z" fill="white"/>
</g>
</mask>
<g mask="url(#mask0_371_770)">
<g id="Group">
<path id="Vector_2" d="M140 0H0V36H140V0Z" fill="white"/>
<path id="Vector_3" d="M1.77295 27.3599V9.21591H10.1561C12.1147 9.21591 13.8369 9.58743 15.3227 10.3305C16.8085 11.0735 17.9651 12.1189 18.7924 13.4668C19.6367 14.8146 20.0588 16.4217 20.0588 18.2879C20.0588 20.1369 19.6367 21.7439 18.7924 23.109C17.9651 24.4569 16.8085 25.5023 15.3227 26.2453C13.8369 26.9884 12.1147 27.3599 10.1561 27.3599H1.77295ZM6.78762 23.2645H9.95345C10.9665 23.2645 11.8445 23.0745 12.5874 22.6943C13.3472 22.2969 13.9382 21.7266 14.3603 20.9836C14.7824 20.2233 14.9935 19.3247 14.9935 18.2879C14.9935 17.2338 14.7824 16.3353 14.3603 15.5922C13.9382 14.8492 13.3472 14.2876 12.5874 13.9074C11.8445 13.51 10.9665 13.3113 9.95345 13.3113H6.78762V23.2645ZM30.8776 27.7228C29.4593 27.7228 28.1508 27.4895 26.952 27.0229C25.7532 26.5564 24.7064 25.8997 23.8115 25.053C22.9335 24.189 22.2497 23.1868 21.76 22.0463C21.2704 20.9058 21.0256 19.653 21.0256 18.2879C21.0256 16.9228 21.2704 15.67 21.76 14.5295C22.2497 13.389 22.9335 12.3954 23.8115 11.5487C24.7064 10.6847 25.7532 10.0194 26.952 9.55287C28.1508 9.08631 29.4593 8.85303 30.8776 8.85303C32.3128 8.85303 33.6213 9.08631 34.8032 9.55287C36.002 10.0194 37.0404 10.6847 37.9184 11.5487C38.7964 12.3954 39.4802 13.389 39.9699 14.5295C40.4764 15.67 40.7297 16.9228 40.7297 18.2879C40.7297 19.653 40.4764 20.9145 39.9699 22.0722C39.4802 23.2127 38.7964 24.2063 37.9184 25.053C37.0404 25.8997 36.002 26.5564 34.8032 27.0229C33.6213 27.4895 32.3128 27.7228 30.8776 27.7228ZM30.8776 23.4719C31.553 23.4719 32.1777 23.3509 32.7518 23.109C33.3427 22.8671 33.8493 22.5215 34.2714 22.0722C34.7104 21.6057 35.0481 21.0527 35.2844 20.4133C35.5377 19.774 35.6643 19.0655 35.6643 18.2879C35.6643 17.493 35.5377 16.7845 35.2844 16.1625C35.0481 15.5231 34.7104 14.9788 34.2714 14.5295C33.8493 14.0629 33.3427 13.7087 32.7518 13.4668C32.1777 13.2249 31.553 13.1039 30.8776 13.1039C30.2022 13.1039 29.5691 13.2249 28.9781 13.4668C28.404 13.7087 27.8975 14.0629 27.4585 14.5295C27.0364 14.9788 26.6987 15.5231 26.4454 16.1625C26.2091 16.7845 26.0909 17.493 26.0909 18.2879C26.0909 19.0655 26.2091 19.774 26.4454 20.4133C26.6987 21.0527 27.0364 21.6057 27.4585 22.0722C27.8975 22.5215 28.404 22.8671 28.9781 23.109C29.5691 23.3509 30.2022 23.4719 30.8776 23.4719ZM42.5963 27.3599V9.21591H46.7246L56.5006 21.2946H54.5505V9.21591H59.4639V27.3599H55.3356L45.5595 15.2812H47.5097V27.3599H42.5963ZM73.816 27.5154C72.9549 27.5154 72.1022 27.4204 71.258 27.2303C70.4306 27.0229 69.6793 26.7465 69.0039 26.4009C68.3285 26.038 67.7882 25.6405 67.383 25.2085L68.2948 23.7052C68.7 24.1372 69.1981 24.5173 69.789 24.8457C70.3969 25.174 71.0638 25.4332 71.7898 25.6233C72.5159 25.7961 73.2419 25.8825 73.9679 25.8825C75.0148 25.8825 75.9265 25.7442 76.7032 25.4677C77.4968 25.1913 78.113 24.7852 78.552 24.2495C78.991 23.7138 79.2105 23.0658 79.2105 22.3055C79.2105 21.7007 79.0417 21.2169 78.704 20.854C78.3663 20.4738 77.9273 20.1714 77.387 19.9468C76.8467 19.7049 76.2473 19.4889 75.5888 19.2988C74.9303 19.1087 74.2718 18.9013 73.6134 18.6767C72.9549 18.4521 72.347 18.1756 71.7898 17.8473C71.2495 17.5189 70.8105 17.0869 70.4728 16.5513C70.152 16.0156 69.9916 15.3417 69.9916 14.5295C69.9916 13.389 70.2956 12.4127 70.9034 11.6005C71.5112 10.7711 72.347 10.1404 73.4107 9.70839C74.4745 9.27639 75.6986 9.06039 77.0831 9.06039C78.1299 9.06039 79.1346 9.18999 80.097 9.44919C81.0763 9.70839 81.9036 10.0972 82.579 10.6156L81.7939 12.1708C81.1522 11.6869 80.4178 11.3241 79.5904 11.0821C78.7631 10.8229 77.8936 10.6933 76.9818 10.6933C75.9518 10.6933 75.0485 10.8402 74.2718 11.134C73.4952 11.4277 72.8873 11.8511 72.4483 12.4041C72.0262 12.9397 71.8152 13.5877 71.8152 14.3481C71.8152 14.9529 71.9756 15.4453 72.2964 15.8255C72.6341 16.2057 73.073 16.5167 73.6134 16.7586C74.1705 17.0005 74.7784 17.2252 75.4369 17.4325C76.0954 17.6226 76.7539 17.83 77.4123 18.0546C78.0708 18.262 78.6702 18.5298 79.2105 18.8581C79.7677 19.1692 80.2152 19.5839 80.5528 20.1023C80.8905 20.6034 81.0594 21.2514 81.0594 22.0463C81.0594 23.2041 80.747 24.1977 80.1223 25.0271C79.4976 25.8393 78.6365 26.4613 77.539 26.8933C76.4584 27.3081 75.2174 27.5154 73.816 27.5154ZM83.471 27.3599L87.0168 9.21591H93.3737C95.383 9.21591 96.9364 9.66519 98.0339 10.5637C99.1482 11.4623 99.7054 12.7237 99.7054 14.3481C99.7054 15.9033 99.3677 17.2252 98.6923 18.3138C98.0338 19.3852 97.0883 20.206 95.8558 20.7762C94.6232 21.3465 93.1627 21.6316 91.4743 21.6316H85.6238L86.6369 20.7244L85.3199 27.3599H83.471ZM86.5862 20.8799L85.9277 19.9468H91.4996C93.5088 19.9468 95.0622 19.4889 96.1597 18.573C97.2741 17.6572 97.8312 16.3093 97.8312 14.5295C97.8312 13.3372 97.4344 12.43 96.6409 11.8079C95.8473 11.1858 94.7076 10.8748 93.2218 10.8748H87.7512L88.739 9.91575L86.5862 20.8799ZM101.65 21.9167L103.752 9.21591H105.879L103.043 21.9167H101.65ZM101.473 27.4895C101.101 27.4895 100.789 27.3685 100.536 27.1266C100.299 26.8674 100.181 26.565 100.181 26.2194C100.181 25.822 100.316 25.4937 100.586 25.2345C100.856 24.958 101.177 24.8197 101.549 24.8197C101.92 24.8197 102.224 24.9407 102.46 25.1826C102.714 25.4245 102.84 25.7183 102.84 26.0639C102.84 26.3231 102.773 26.565 102.638 26.7897C102.519 26.997 102.359 27.1698 102.156 27.3081C101.954 27.429 101.726 27.4895 101.473 27.4895ZM109.268 22.798L109.546 20.4393L122.336 9.21591H124.793L115.219 17.6399L114.105 18.573L109.268 22.798ZM106.71 27.3599L110.255 9.21591H112.104L108.558 27.3599H106.71ZM119.576 27.3599L113.548 18.3397L114.814 17.0697L121.678 27.3599H119.576ZM127.577 17.3289H136.948L136.644 18.9618H127.273L127.577 17.3289ZM126.134 25.701H136.796L136.467 27.3599H123.956L127.501 9.21591H139.658L139.329 10.8748H129.021L126.134 25.701Z" fill="url(#paint0_linear_371_770)"/>
</g>
</g>
</g>
</g>
<defs>
<linearGradient id="paint0_linear_371_770" x1="8.4854e-05" y1="17.9999" x2="140" y2="17.9999" gradientUnits="userSpaceOnUse">
<stop offset="0.19085" stop-color="#9B30FF"/>
<stop offset="0.92" stop-color="#FFB200"/>
</linearGradient>
<clipPath id="clip0_371_770">
<rect width="140" height="36" fill="white"/>
</clipPath>
</defs>
</svg>
